<mxfile host="app.diagrams.net" modified="2023-03-24T12:25:00.880Z" agent="Mozilla/5.0 (Windows NT 10.0; Win64; x64) AppleWebKit/537.36 (KHTML, like Gecko) Chrome/111.0.0.0 Safari/537.36 Edg/111.0.1661.51" version="21.1.0" etag="7_jiU2bvV4yZsST9OKsI" type="github">
  <diagram name="第 1 页" id="l6h8nzet26w7MI02Z6ip">
    <mxGraphModel>
      <root>
        <mxCell id="0" />
        <mxCell id="1" parent="0" />
      </root>
    </mxGraphModel>
  </diagram>
</mxfile>
